<svg width="55" height="55" viewBox="0 0 55 55" fill="none" xmlns="http://www.w3.org/2000/svg">
<path d="M22.5624 33.798L25.4359 41.1929H29.5066L32.3801 33.798C33.7208 30.3479 34.4896 25.5366 34.4896 20.5969C34.4896 14.859 33.6306 9.48963 32.0713 5.47684C30.739 2.04731 29.019 0 27.4715 0C25.9235 0 24.2039 2.04731 22.8712 5.47684C21.3119 9.48963 20.453 14.859 20.453 20.5965C20.453 25.5366 21.2217 30.3479 22.5624 33.798Z" fill="#2F73F2"/>
<path d="M33.3788 0.864868C33.9969 1.84803 34.5659 2.99862 35.0753 4.3095C36.7756 8.68568 37.7122 14.4697 37.7122 20.5965C37.7122 25.9986 36.8851 31.1012 35.3842 34.9654L32.9638 41.193H34.375C34.8022 41.193 35.2121 41.023 35.5143 40.7209L42.7149 33.5207C46.1666 30.0681 48.0675 25.4787 48.0675 20.5965C48.0675 11.2919 41.8656 3.41026 33.3788 0.864868Z" fill="#2F73F2"/>
<path d="M21.9787 41.193L19.5583 34.9654C18.0574 31.1012 17.2303 25.9986 17.2303 20.5969C17.2303 14.4697 18.1669 8.68568 19.8672 4.3095C20.3766 2.99862 20.946 1.84803 21.5641 0.864868C13.0774 3.41026 6.875 11.2923 6.875 20.5969C6.875 25.4783 8.77586 30.0681 12.2276 33.5207L19.4283 40.7209C19.7304 41.023 20.1403 41.193 20.5675 41.193H21.9787Z" fill="#2F73F2"/>
<path d="M31.6899 48.0964H23.2531V44.4151H20.4353C20.299 44.4151 20.1638 44.4126 20.0304 44.4076V53.3886C20.0304 54.2787 20.7521 55 21.6417 55H33.3008C34.1904 55 34.9121 54.2787 34.9121 53.3886L34.9125 44.4156H31.6899V48.0964Z" fill="white"/>
</svg>
