<svg width="50" height="50" viewBox="0 0 50 50" fill="none" xmlns="http://www.w3.org/2000/svg">
<g clip-path="url(#clip0_1_400)">
<path d="M39.0625 0H10.9375C4.89687 0 0 4.89687 0 10.9375V39.0625C0 45.1031 4.89687 50 10.9375 50H39.0625C45.1031 50 50 45.1031 50 39.0625V10.9375C50 4.89687 45.1031 0 39.0625 0Z" fill="#73AF00"/>
<path d="M45.4097 24.9994L25 4.58969L4.59028 24.9994L25 45.4091L45.4097 24.9994Z" fill="#FFE15A"/>
<path d="M25 33.459C29.6718 33.459 33.459 29.6718 33.459 25C33.459 20.3282 29.6718 16.541 25 16.541C20.3282 16.541 16.541 20.3282 16.541 25C16.541 29.6718 20.3282 33.459 25 33.459Z" fill="#41479B"/>
<path d="M17.7413 20.6728C17.3422 21.3408 17.0341 22.0671 16.8305 22.838C21.5198 22.4851 28.4566 23.7969 32.8719 28.0812C33.1601 27.3455 33.3503 26.5619 33.4217 25.7427C28.8626 21.9059 22.5599 20.5414 17.7413 20.6728Z" fill="#F5F5F5"/>
<path d="M25.3503 27.8866L25.5755 28.5619L26.2874 28.5674C26.3796 28.5681 26.4178 28.6857 26.3437 28.7404L25.771 29.1634L25.9858 29.8421C26.0136 29.93 25.9135 30.0026 25.8385 29.949L25.2593 29.5351L24.6801 29.949C24.6051 30.0026 24.5051 29.9299 24.5328 29.8421L24.7476 29.1634L24.1749 28.7405C24.1008 28.6857 24.139 28.5682 24.2312 28.5675L24.9431 28.562L25.1683 27.8867C25.1975 27.7992 25.3212 27.7992 25.3503 27.8866Z" fill="#F5F5F5"/>
<path d="M28.1171 29.6336L28.2141 29.9243L28.5204 29.9267C28.5601 29.927 28.5766 29.9777 28.5446 30.0012L28.2982 30.1832L28.3905 30.4753C28.4025 30.5131 28.3594 30.5444 28.3272 30.5213L28.0778 30.3432L27.8285 30.5213C27.7962 30.5443 27.7531 30.5131 27.7651 30.4753L27.8575 30.1832L27.611 30.0012C27.5791 29.9777 27.5956 29.927 27.6353 29.9267L27.9417 29.9243L28.0387 29.6336C28.0514 29.596 28.1046 29.596 28.1171 29.6336Z" fill="#F5F5F5"/>
<path d="M24.1541 26.6038L24.2511 26.8945L24.5574 26.8969C24.5971 26.8972 24.6136 26.9479 24.5816 26.9714L24.3352 27.1534L24.4275 27.4455C24.4396 27.4833 24.3965 27.5147 24.3642 27.4915L24.1148 27.3134L23.8655 27.4915C23.8333 27.5146 23.7902 27.4833 23.8021 27.4455L23.8945 27.1534L23.648 26.9714C23.6161 26.9479 23.6326 26.8972 23.6723 26.8969L23.9786 26.8945L24.0756 26.6038C24.0883 26.5662 24.1415 26.5662 24.1541 26.6038Z" fill="#F5F5F5"/>
<path d="M18.7869 26.2514L18.8839 26.5421L19.1902 26.5444C19.2299 26.5447 19.2464 26.5953 19.2145 26.6189L18.968 26.801L19.0604 27.093C19.0723 27.1308 19.0293 27.1622 18.997 27.139L18.7477 26.9609L18.4983 27.139C18.466 27.1621 18.4231 27.1308 18.435 27.093L18.5275 26.801L18.281 26.6189C18.249 26.5954 18.2655 26.5447 18.3052 26.5444L18.6115 26.5421L18.7085 26.2514C18.7211 26.2137 18.7744 26.2137 18.7869 26.2514Z" fill="#F5F5F5"/>
<path d="M23.2769 29.5333L23.3738 29.824L23.6803 29.8264C23.7199 29.8267 23.7364 29.8773 23.7045 29.9009L23.458 30.0829L23.5504 30.375C23.5624 30.4128 23.5193 30.4441 23.487 30.421L23.2377 30.2429L22.9884 30.421C22.9562 30.444 22.9131 30.4128 22.925 30.375L23.0174 30.0829L22.7709 29.9009C22.739 29.8773 22.7555 29.8267 22.7951 29.8264L23.1015 29.824L23.1984 29.5333C23.2111 29.4957 23.2644 29.4957 23.2769 29.5333Z" fill="#F5F5F5"/>
<path d="M20.8064 26.0485L20.8857 26.2862L21.1362 26.2882C21.1687 26.2885 21.1821 26.3299 21.1561 26.3491L20.9545 26.4979L21.0301 26.7368C21.0399 26.7678 21.0047 26.7933 20.9782 26.7745L20.7744 26.6288L20.5706 26.7745C20.5442 26.7933 20.509 26.7678 20.5188 26.7368L20.5943 26.4979L20.3928 26.3491C20.3667 26.3299 20.3801 26.2885 20.4126 26.2882L20.6632 26.2862L20.7425 26.0485C20.7525 26.0178 20.7961 26.0178 20.8064 26.0485Z" fill="#F5F5F5"/>
<path d="M28.3322 21.1422L28.4313 21.4395L28.7447 21.4419C28.7853 21.4422 28.8021 21.494 28.7694 21.5181L28.5174 21.7042L28.6119 22.003C28.6241 22.0417 28.5801 22.0737 28.5471 22.0501L28.2921 21.8679L28.0371 22.0501C28.0041 22.0737 27.9601 22.0417 27.9723 22.003L28.0668 21.7042L27.8147 21.5181C27.7821 21.494 27.7989 21.4422 27.8395 21.4419L28.1528 21.4395L28.252 21.1422C28.2649 21.1037 28.3193 21.1037 28.3322 21.1422Z" fill="#F5F5F5"/>
<path d="M19.1321 24.5946L19.2114 24.8323L19.462 24.8343C19.4944 24.8346 19.5079 24.8759 19.4818 24.8952L19.2803 25.044L19.3559 25.2829C19.3656 25.3139 19.3305 25.3395 19.304 25.3206L19.1001 25.1749L18.8963 25.3206C18.8699 25.3395 18.8347 25.3139 18.8444 25.2829L18.92 25.044L18.7185 24.8952C18.6924 24.876 18.7058 24.8346 18.7383 24.8343L18.9889 24.8323L19.0682 24.5946C19.0784 24.5639 19.1219 24.5639 19.1321 24.5946Z" fill="#F5F5F5"/>
<path d="M20.342 27.9443L20.462 28.3043L20.8415 28.3072C20.8906 28.3076 20.911 28.3703 20.8715 28.3995L20.5662 28.6249L20.6807 28.9867C20.6955 29.0336 20.6422 29.0723 20.6022 29.0438L20.2935 28.8231L19.9848 29.0438C19.9448 29.0723 19.8915 29.0336 19.9063 28.9867L20.0207 28.6249L19.7154 28.3995C19.6759 28.3703 19.6963 28.3076 19.7454 28.3072L20.1249 28.3043L20.2449 27.9443C20.2606 27.8977 20.3265 27.8977 20.342 27.9443Z" fill="#F5F5F5"/>
<path d="M29.6599 29.7091L29.7354 29.9355L29.9741 29.9374C30.005 29.9376 30.0179 29.977 29.993 29.9954L29.8009 30.1372L29.8729 30.3648C29.8821 30.3943 29.8486 30.4186 29.8234 30.4007L29.6292 30.2618L29.435 30.4007C29.4098 30.4186 29.3763 30.3942 29.3855 30.3648L29.4575 30.1372L29.2654 29.9954C29.2405 29.977 29.2534 29.9376 29.2843 29.9374L29.523 29.9355L29.5985 29.7091C29.6086 29.6798 29.6501 29.6798 29.6599 29.7091Z" fill="#F5F5F5"/>
<path d="M30.4952 27.9806L30.5922 28.2713L30.8986 28.2736C30.9383 28.2739 30.9548 28.3246 30.9229 28.3481L30.6764 28.5302L30.7688 28.8224C30.7808 28.8601 30.7377 28.8915 30.7054 28.8684L30.4561 28.6902L30.2067 28.8684C30.1744 28.8914 30.1315 28.8601 30.1434 28.8224L30.2358 28.5302L29.9893 28.3481C29.9573 28.3246 29.9738 28.2739 30.0135 28.2736L30.3198 28.2713L30.4168 27.9806C30.4295 27.943 30.4827 27.943 30.4952 27.9806Z" fill="#F5F5F5"/>
</g>
<defs>
<clipPath id="clip0_1_400">
<rect width="50" height="50" fill="white"/>
</clipPath>
</defs>
</svg>
