<svg width="50" height="50" viewBox="0 0 50 50" fill="none" xmlns="http://www.w3.org/2000/svg">
<g clip-path="url(#clip0_1_417)">
<path d="M38.793 0H11.207V50H38.793V0Z" fill="#F5F5F5"/>
<path d="M10.9375 0C4.89688 0 0 4.89687 0 10.9375V39.0625C0 45.1031 4.89688 50 10.9375 50H11.2068V0H10.9375Z" fill="#FF4B55"/>
<path d="M39.0625 0H38.7931V50H39.0625C45.1031 50 50 45.1031 50 39.0625V10.9375C50 4.89687 45.1031 0 39.0625 0Z" fill="#FF4B55"/>
<path d="M30.2314 28.7851L35.3469 25.862L34.1731 25.2751C33.8439 25.1104 33.6554 24.755 33.7041 24.39L34.0859 21.5266L31.9202 22.1566C31.4418 22.2958 30.9453 22.0017 30.8377 21.5151L30.6303 20.5776L28.5968 22.9575C28.3149 23.2874 27.7778 23.0353 27.8514 22.6078L28.7197 17.5582L27.3901 17.9219C27.0018 18.028 26.5917 17.8514 26.4022 17.4962L25.0021 14.8721V14.8683L25.0011 14.8702L25 14.8683V14.8721L23.5999 17.4962C23.4104 17.8514 23.0002 18.0281 22.6119 17.9219L21.2823 17.5583L22.1507 22.6079C22.2242 23.0355 21.6871 23.2875 21.4053 22.9576L19.3718 20.5777L19.1644 21.5152C19.0567 22.0017 18.5603 22.2959 18.0818 22.1567L15.9161 21.5267L16.298 24.3901C16.3466 24.755 16.1582 25.1105 15.829 25.2752L14.6552 25.8621L19.7707 28.7852C20.3006 29.088 20.5327 29.7303 20.319 30.3018L19.8817 31.4715L24.265 31.0973C24.5076 31.0766 24.7141 31.2719 24.7069 31.5152L24.569 36.2069H25.4311L25.2931 31.5149C25.2859 31.2716 25.4924 31.0763 25.735 31.097L30.1203 31.4714L29.683 30.3017C29.4693 29.7302 29.7016 29.088 30.2314 28.7851Z" fill="#FF4B55"/>
</g>
<defs>
<clipPath id="clip0_1_417">
<rect width="50" height="50" fill="white"/>
</clipPath>
</defs>
</svg>
