<svg width="50" height="50" viewBox="0 0 50 50" fill="none" xmlns="http://www.w3.org/2000/svg">
<g clip-path="url(#clip0_1_362)">
<path d="M39.0625 0H10.9375C4.89687 0 0 4.89687 0 10.9375V39.0625C0 45.1031 4.89687 50 10.9375 50H39.0625C45.1031 50 50 45.1031 50 39.0625V10.9375C50 4.89687 45.1031 0 39.0625 0Z" fill="#FF4B55"/>
<path d="M11.1349 8.51387L12.3773 12.2391L16.304 12.2695C16.8124 12.2734 17.0232 12.9223 16.6143 13.2243L13.4553 15.557L14.6398 19.3011C14.7931 19.7858 14.2412 20.1868 13.8275 19.8911L10.6328 17.6076L7.43809 19.8911C7.02452 20.1867 6.47256 19.7857 6.62589 19.3011L7.81036 15.557L4.65137 13.2243C4.24239 12.9223 4.45323 12.2735 4.96163 12.2695L8.88838 12.2391L10.1308 8.51387C10.2918 8.03154 10.974 8.03154 11.1349 8.51387Z" fill="#FFE15A"/>
<path d="M25.3942 9.43183L26.2851 10.6467L27.7229 10.1971C27.909 10.1389 28.0621 10.3511 27.9482 10.5094L27.0681 11.732L27.94 12.9605C28.0528 13.1196 27.8983 13.3308 27.7125 13.2714L26.2777 12.8122L25.3788 14.021C25.2624 14.1775 25.0138 14.0958 25.013 13.9008L25.0064 12.3943L23.5789 11.913C23.3941 11.8507 23.395 11.589 23.5802 11.5278L25.0109 11.056L25.0276 9.5497C25.0298 9.35459 25.2789 9.27451 25.3942 9.43183Z" fill="#FFE15A"/>
<path d="M19.9703 5.81064L21.468 5.97343L22.1068 4.60918C22.1895 4.43252 22.4495 4.46279 22.4894 4.6538L22.7974 6.12842L24.2923 6.31445C24.4858 6.33857 24.5373 6.59512 24.3681 6.69199L23.0607 7.44053L23.3458 8.91973C23.3827 9.11123 23.1546 9.23955 23.0102 9.1085L21.8942 8.09648L20.5755 8.82471C20.4048 8.91895 20.2123 8.7417 20.2922 8.56377L20.9098 7.18974L19.8097 6.16054C19.6673 6.02744 19.7765 5.78955 19.9703 5.81064Z" fill="#FFE15A"/>
<path d="M22.3378 20.4099L21.447 21.6247L20.0092 21.1751C19.8231 21.1169 19.6699 21.3291 19.7839 21.4874L20.664 22.7101L19.7921 23.9386C19.6792 24.0977 19.8337 24.3088 20.0195 24.2494L21.4543 23.7902L22.3532 24.999C22.4696 25.1556 22.7183 25.0738 22.7191 24.8788L22.7257 23.3724L24.1531 22.891C24.3379 22.8287 24.337 22.567 24.1519 22.506L22.7212 22.0342L22.7045 20.5278C22.7024 20.3326 22.4531 20.2525 22.3378 20.4099Z" fill="#FFE15A"/>
<path d="M27.7618 17.0069L26.2642 17.1697L25.6253 15.8055C25.5426 15.6288 25.2826 15.6591 25.2428 15.85L24.9348 17.3246L23.4399 17.5106C23.2463 17.5348 23.1948 17.7913 23.3641 17.8882L24.6714 18.6367L24.3863 20.1159C24.3494 20.3074 24.5775 20.4357 24.722 20.3047L25.8379 19.2927L27.1567 20.0209C27.3274 20.1151 27.5198 19.9379 27.4399 19.76L26.8224 18.3859L27.9225 17.3567C28.0649 17.2237 27.9557 16.9858 27.7618 17.0069Z" fill="#FFE15A"/>
</g>
<defs>
<clipPath id="clip0_1_362">
<rect width="50" height="50" fill="white"/>
</clipPath>
</defs>
</svg>
