<svg width="50" height="50" viewBox="0 0 50 50" fill="none" xmlns="http://www.w3.org/2000/svg">
<g clip-path="url(#clip0_1_489)">
<path d="M25 20.1788C29.6923 20.1788 33.4961 16.375 33.4961 11.6827C33.4961 6.99048 29.6923 3.18665 25 3.18665C20.3077 3.18665 16.5039 6.99048 16.5039 11.6827C16.5039 16.375 20.3077 20.1788 25 20.1788Z" fill="white"/>
<path d="M42.1875 20.1787C45.1539 20.1787 47.5586 17.774 47.5586 14.8076C47.5586 11.8412 45.1539 9.43652 42.1875 9.43652C39.2211 9.43652 36.8164 11.8412 36.8164 14.8076C36.8164 17.774 39.2211 20.1787 42.1875 20.1787Z" fill="white"/>
<path d="M7.8125 20.1787C10.7789 20.1787 13.1836 17.774 13.1836 14.8076C13.1836 11.8412 10.7789 9.43652 7.8125 9.43652C4.84613 9.43652 2.44141 11.8412 2.44141 14.8076C2.44141 17.774 4.84613 20.1787 7.8125 20.1787Z" fill="white"/>
<path d="M13.1045 25.0021C10.9902 23.2699 9.07549 23.4992 6.63086 23.4992C2.97461 23.4992 0 26.4562 0 30.09V40.755C0 42.3332 1.28809 43.6164 2.87207 43.6164C9.71055 43.6164 8.88672 43.7401 8.88672 43.3214C8.88672 35.7642 7.9916 30.2221 13.1045 25.0021Z" fill="#2F73F2"/>
<path d="M27.3252 23.5381C23.0553 23.1819 19.3439 23.5422 16.1426 26.1846C10.7855 30.4756 11.8164 36.2532 11.8164 43.3213C11.8164 45.1913 13.3379 46.7412 15.2363 46.7412C35.8498 46.7412 36.6702 47.4062 37.8926 44.6992C38.2935 43.7838 38.1836 44.0747 38.1836 35.3174C38.1836 28.3617 32.1609 23.5381 27.3252 23.5381Z" fill="#2F73F2"/>
<path d="M43.3691 23.4991C40.9111 23.4991 39.0069 23.2721 36.8955 25.002C41.9702 30.1832 41.1133 35.3472 41.1133 43.3213C41.1133 43.7426 40.4294 43.6163 47.0254 43.6163C48.666 43.6163 50 42.2872 50 40.6534V30.0899C50 26.4561 47.0254 23.4991 43.3691 23.4991Z" fill="#2F73F2"/>
</g>
<defs>
<clipPath id="clip0_1_489">
<rect width="50" height="50" fill="white"/>
</clipPath>
</defs>
</svg>
