<svg width="35" height="35" viewBox="0 0 35 35" fill="none" xmlns="http://www.w3.org/2000/svg">
<path d="M32.0779 1.07666H2.88631C1.88676 1.07726 1.07646 1.88796 1.07666 2.88792V32.0795C1.07726 33.0791 1.88796 33.8894 2.88792 33.8892H18.6044V21.2H14.3427V16.2332H18.6044V12.5781C18.6044 8.33931 21.1921 6.03218 24.9733 6.03218C26.7843 6.03218 28.3406 6.16716 28.7943 6.22745V10.6577H26.1869C24.1297 10.6577 23.7314 11.6352 23.7314 13.0699V16.2332H28.6501L28.0092 21.2H23.7314V33.8892H32.0779C33.0781 33.8894 33.889 33.0789 33.8892 32.0787C33.8892 32.0785 33.8892 32.0783 33.8892 32.0779V2.88631C33.8888 1.88676 33.0779 1.07646 32.0779 1.07666Z" fill="#2F73F2"/>
</svg>
