<svg width="50" height="50" viewBox="0 0 50 50" fill="none" xmlns="http://www.w3.org/2000/svg">
<path d="M47.3131 3.55475C46.0375 2.1156 44.3623 1.02819 42.4686 0.440521V3.55475H47.3131Z" fill="#D81E34"/>
<path d="M42.4686 7.12431H49.4166C48.963 5.7879 48.243 4.58209 47.3131 3.55475H42.4686V7.12431Z" fill="#E8E8E8"/>
<path d="M49.9713 9.98694C49.9164 8.99095 49.7266 8.035 49.4166 7.12433H42.4686V10.707H50V10.5903C50 10.3848 50 10.1933 49.9713 9.98694Z" fill="#D81E34"/>
<path d="M42.4686 10.7069H50V14.2782H42.4686V10.7069Z" fill="#E8E8E8"/>
<path d="M42.4686 14.2774H50V17.8452H42.4686V14.2774Z" fill="#D81E34"/>
<path d="M42.4686 17.8452H50V21.4304H42.4686V17.8452Z" fill="#E8E8E8"/>
<path d="M42.4686 21.4296H50V25H42.4686V21.4296Z" fill="#D81E34"/>
<path d="M42.4686 25H50V28.5696H42.4686V25Z" fill="#E8E8E8"/>
<path d="M0 28.5704V32.1522H50V28.5704H42.4686H0Z" fill="#D81E34"/>
<path d="M0 32.1522H50V35.7244H0V32.1522Z" fill="#E8E8E8"/>
<path d="M0 35.7244H50V39.2922H0V35.7244Z" fill="#D81E34"/>
<path d="M0 39.4089C0 39.6152 7.46018e-08 39.8067 0.0304741 40.0122C0.086198 41.0108 0.278619 41.9633 0.586842 42.8757H49.4166C49.7257 41.9633 49.9164 41.0108 49.9713 40.0122C50 39.8059 50 39.6152 50 39.4089V39.2913H0V39.4089Z" fill="#E8E8E8"/>
<path d="M2.68521 46.4452H47.3131C48.243 45.4162 48.963 44.2138 49.4167 42.8757H0.586853C1.04048 44.2138 1.76228 45.4162 2.68521 46.4452Z" fill="#D81E34"/>
<path d="M10.591 50H39.4124C42.5548 50 45.3932 48.6331 47.313 46.4453H2.68518C4.60853 48.6331 7.44696 50 10.591 50Z" fill="#E8E8E8"/>
<path d="M42.4686 25V21.4296V17.8443V14.2765V10.7052V7.12258V3.55302V0.440536C41.5012 0.161065 40.4756 0 39.4125 0H10.591C4.94985 0 0.321283 4.42016 0.0304741 9.98694C7.46018e-08 10.1933 0 10.3848 0 10.5894V28.5696H42.4677V25H42.4686ZM12.975 25.0009C12.6023 25.0009 12.2366 24.9817 11.8744 24.9443C8.35597 24.5882 5.34949 22.5309 3.66907 19.6091C2.76791 18.0394 2.2455 16.2215 2.2455 14.2774C2.2455 13.8177 2.28294 13.3684 2.33866 12.9253C2.55111 11.2302 3.15362 9.6561 4.06262 8.30141C5.72563 5.83406 8.38906 4.105 11.4704 3.6723C11.9615 3.60265 12.4604 3.55476 12.9723 3.55476H12.9741H12.9758C13.4826 3.55476 13.9771 3.60178 14.4673 3.67055C14.4725 3.67055 14.4778 3.67143 14.4847 3.6723C15.4817 3.81247 16.4333 4.08933 17.3232 4.48633C18.3453 4.94167 19.2927 5.54327 20.1189 6.28243C20.1085 6.27547 20.0972 6.27111 20.0867 6.26502C20.0954 6.27285 20.1041 6.27895 20.1137 6.28678C19.0732 5.64687 17.903 5.20634 16.6484 5.00958C16.1791 4.93731 15.6993 4.89291 15.2117 4.89291C10.032 4.89291 5.82315 9.09455 5.82315 14.2783C5.82315 19.462 10.032 23.6636 15.2117 23.6636C15.5078 23.6636 15.7951 23.6288 16.0859 23.6018C16.4516 23.5669 16.8103 23.5121 17.1638 23.439C17.1908 23.4329 17.2152 23.4233 17.2422 23.4181C17.5687 23.3467 17.8882 23.2631 18.2017 23.1604C18.2121 23.1578 18.2191 23.1525 18.2269 23.1499C18.8904 22.927 19.5243 22.6328 20.1146 22.2688C20.1024 22.2767 20.0946 22.2845 20.0858 22.2915C20.0963 22.2845 20.1076 22.2802 20.1198 22.2732C18.2113 23.9596 15.7115 25.0009 12.975 25.0009ZM32.4061 12.2932L27.2786 14.2774L32.4061 16.2598H32.4008L32.4095 16.2641L26.9355 15.8262L30.6821 19.8581L25.9325 17.0782L27.5737 22.3281L27.565 22.3141L27.5685 22.3237L24.4906 17.7599L23.6931 23.2231L23.6914 23.2161L23.6896 23.2231L23.1219 19.3157L22.96 18.183L22.9051 17.7834L22.9016 17.7608L20.2861 21.6316L19.8168 22.3281L20.0954 21.4391L21.4694 17.0738L20.5081 17.6354L16.7172 19.859L16.7311 19.8468L16.7093 19.859L19.6087 16.7517L20.4689 15.8271L14.9845 16.265L14.9967 16.2598L14.9828 16.2607L20.125 14.2783L14.9828 12.2941L14.9984 12.295L14.9854 12.2889L20.4716 12.7294L20.0858 12.3124L16.7102 8.70451L16.7224 8.71235L16.7189 8.70973L18.9601 10.0183L21.4702 11.4827L20.1372 7.24186L19.8177 6.22845L19.8534 6.28156L22.9025 10.7923L22.906 10.7688L22.9609 10.3691L23.1228 9.23994L23.6905 5.34651L23.6922 5.35086L23.694 5.34041L24.4915 10.7923L27.5694 6.23106L27.5659 6.24151L27.5746 6.22758L25.9334 11.4766L30.683 8.70364L30.6743 8.71322L30.683 8.70886L26.9347 12.7277L32.4095 12.2889L32.3973 12.2941L32.4061 12.2932Z" fill="#313F99"/>
<path d="M18.2252 23.1499C18.2165 23.1525 18.2095 23.1578 18.2 23.1604C17.8874 23.2631 17.567 23.3467 17.2405 23.4181C17.2135 23.4233 17.1891 23.4329 17.1621 23.439C16.8086 23.5121 16.4499 23.5669 16.0842 23.6018C15.7934 23.6288 15.5061 23.6636 15.21 23.6636C10.0303 23.6636 5.82142 19.4619 5.82142 14.2782C5.82142 9.09455 10.0303 4.89291 15.21 4.89291C15.6985 4.89291 16.1774 4.93732 16.6467 5.00958C17.8865 5.20286 19.0463 5.63295 20.085 6.26415C20.0954 6.27024 20.1068 6.2746 20.1172 6.28156C19.2909 5.5424 18.3436 4.94167 17.3214 4.48546C16.4325 4.08846 15.4782 3.81247 14.483 3.67143C14.4769 3.67056 14.4717 3.66969 14.4665 3.66969C13.9763 3.60091 13.4817 3.55389 12.975 3.55389C12.9732 3.55389 12.9732 3.55389 12.9732 3.55389C12.4613 3.55389 11.9632 3.60178 11.473 3.67143C8.39081 4.105 5.72564 5.83493 4.06438 8.30489C3.15451 9.65784 2.55286 11.2311 2.34042 12.9253C2.28469 13.3684 2.24725 13.8168 2.24725 14.2774C2.24725 16.2197 2.76966 18.035 3.67082 19.6056C5.35125 22.5274 8.35947 24.5882 11.8762 24.9443C12.2384 24.9808 12.6041 25.0009 12.9767 25.0009C15.7133 25.0009 18.213 23.9596 20.119 22.2732C20.1068 22.2802 20.0954 22.2845 20.085 22.2915C19.5008 22.6458 18.8782 22.9314 18.2252 23.1499Z" fill="#F5D02C"/>
<path d="M26.9338 12.7286L26.9233 12.7294L30.6734 8.7141L30.6812 8.70452L25.9316 11.4775L25.9255 11.4827L27.5642 6.24239L27.5677 6.23107L24.4898 10.7923L23.6922 5.34042L23.6905 5.35087L23.1228 9.24431L22.9678 10.3718L22.9051 10.7688L22.9017 10.7923L19.8525 6.28157L19.8186 6.23107L20.1364 7.24187L21.4694 11.4827L18.9601 10.0183L16.7215 8.71236L16.7102 8.70452L20.085 12.3124L20.4733 12.7294H20.4716L14.9854 12.2889L14.9993 12.2941L20.1259 14.2774L14.9976 16.2589L14.9854 16.265L20.4698 15.8262L20.4733 15.8254L19.6096 16.7508L16.7102 19.8581L16.732 19.8459L20.509 17.6354L21.4694 17.0738L20.0954 21.4392L19.8186 22.3237L20.2861 21.6307L22.9017 17.7608L22.9051 17.7834L22.9678 18.1891L23.1228 19.3105L23.6905 23.217L23.6922 23.2231L24.4898 17.7608L27.5677 22.3237L27.5642 22.3141L25.9255 17.0738L25.9316 17.0782L30.6812 19.8581L26.9233 15.8254L26.9355 15.8262L32.4095 16.265L32.4008 16.2598L27.2716 14.2774L32.3973 12.2941L32.4095 12.2889L26.9338 12.7286Z" fill="#F5D02C"/>
</svg>
