<svg width="187" height="59" viewBox="0 0 187 59" fill="none" xmlns="http://www.w3.org/2000/svg">
<path d="M0 52.0159C2.98246 54.1111 9.1579 58.4413 10 59V23.1905L0 19V52.0159Z" fill="#CF5404"/>
<rect width="187" height="52" fill="#FC8233"/>
<path d="M26.848 35.288C25.696 35.288 24.648 35.064 23.704 34.616C22.776 34.152 22.032 33.44 21.472 32.48C20.912 31.52 20.632 30.296 20.632 28.808V18.2H22.648V28.832C22.648 30.464 23.04 31.648 23.824 32.384C24.608 33.12 25.632 33.488 26.896 33.488C28.16 33.488 29.176 33.12 29.944 32.384C30.712 31.648 31.096 30.464 31.096 28.832V18.2H33.112V28.808C33.112 30.296 32.832 31.52 32.272 32.48C31.712 33.44 30.96 34.152 30.016 34.616C29.072 35.064 28.016 35.288 26.848 35.288ZM35.206 40.28V23.096H37.03L37.222 25.064C37.606 24.488 38.15 23.968 38.854 23.504C39.574 23.04 40.486 22.808 41.59 22.808C42.774 22.808 43.806 23.08 44.686 23.624C45.566 24.168 46.246 24.912 46.726 25.856C47.222 26.8 47.47 27.872 47.47 29.072C47.47 30.272 47.222 31.344 46.726 32.288C46.246 33.216 45.558 33.952 44.662 34.496C43.782 35.024 42.75 35.288 41.566 35.288C40.59 35.288 39.718 35.088 38.95 34.688C38.198 34.288 37.622 33.728 37.222 33.008V40.28H35.206ZM41.35 33.536C42.15 33.536 42.854 33.352 43.462 32.984C44.07 32.6 44.55 32.072 44.902 31.4C45.254 30.728 45.43 29.944 45.43 29.048C45.43 28.152 45.254 27.368 44.902 26.696C44.55 26.024 44.07 25.504 43.462 25.136C42.854 24.752 42.15 24.56 41.35 24.56C40.55 24.56 39.846 24.752 39.238 25.136C38.63 25.504 38.15 26.024 37.798 26.696C37.446 27.368 37.27 28.152 37.27 29.048C37.27 29.944 37.446 30.728 37.798 31.4C38.15 32.072 38.63 32.6 39.238 32.984C39.846 33.352 40.55 33.536 41.35 33.536ZM58.9319 35C57.8439 35 56.9879 34.736 56.3639 34.208C55.7399 33.68 55.4279 32.728 55.4279 31.352V24.8H53.3639V23.096H55.4279L55.6919 20.24H57.4439V23.096H60.9479V24.8H57.4439V31.352C57.4439 32.104 57.5959 32.616 57.8999 32.888C58.2039 33.144 58.7399 33.272 59.5079 33.272H60.7559V35H58.9319ZM67.405 35.288C66.285 35.288 65.277 35.032 64.381 34.52C63.485 34.008 62.773 33.288 62.245 32.36C61.733 31.416 61.477 30.312 61.477 29.048C61.477 27.784 61.741 26.688 62.269 25.76C62.797 24.816 63.509 24.088 64.405 23.576C65.317 23.064 66.333 22.808 67.453 22.808C68.573 22.808 69.581 23.064 70.477 23.576C71.373 24.088 72.077 24.816 72.589 25.76C73.117 26.688 73.381 27.784 73.381 29.048C73.381 30.312 73.117 31.416 72.589 32.36C72.061 33.288 71.341 34.008 70.429 34.52C69.533 35.032 68.525 35.288 67.405 35.288ZM67.405 33.56C68.093 33.56 68.733 33.392 69.325 33.056C69.917 32.72 70.397 32.216 70.765 31.544C71.133 30.872 71.317 30.04 71.317 29.048C71.317 28.056 71.133 27.224 70.765 26.552C70.413 25.88 69.941 25.376 69.349 25.04C68.757 24.704 68.125 24.536 67.453 24.536C66.765 24.536 66.125 24.704 65.533 25.04C64.941 25.376 64.461 25.88 64.093 26.552C63.725 27.224 63.541 28.056 63.541 29.048C63.541 30.04 63.725 30.872 64.093 31.544C64.461 32.216 64.933 32.72 65.509 33.056C66.101 33.392 66.733 33.56 67.405 33.56ZM88.9557 35V31.49H79.6407V28.736L88.4967 16.1H92.4117V28.493H94.8957V31.49H92.4117V35H88.9557ZM83.3397 28.493H89.1717V19.907L83.3397 28.493ZM104.012 35.324C102.266 35.324 100.772 34.919 99.5296 34.109C98.2876 33.281 97.3246 32.138 96.6406 30.68C95.9746 29.204 95.6416 27.494 95.6416 25.55C95.6416 23.624 95.9746 21.923 96.6406 20.447C97.3246 18.971 98.2876 17.828 99.5296 17.018C100.772 16.19 102.266 15.776 104.012 15.776C105.758 15.776 107.252 16.19 108.494 17.018C109.736 17.828 110.69 18.971 111.356 20.447C112.04 21.923 112.382 23.624 112.382 25.55C112.382 27.494 112.04 29.204 111.356 30.68C110.69 32.138 109.736 33.281 108.494 34.109C107.252 34.919 105.758 35.324 104.012 35.324ZM104.012 32.219C105.434 32.219 106.595 31.625 107.495 30.437C108.395 29.249 108.845 27.62 108.845 25.55C108.845 23.48 108.395 21.851 107.495 20.663C106.595 19.475 105.434 18.881 104.012 18.881C102.572 18.881 101.402 19.475 100.502 20.663C99.6196 21.851 99.1786 23.48 99.1786 25.55C99.1786 27.62 99.6196 29.249 100.502 30.437C101.402 31.625 102.572 32.219 104.012 32.219ZM117.97 25.388C117.106 25.388 116.323 25.199 115.621 24.821C114.919 24.425 114.361 23.867 113.947 23.147C113.533 22.427 113.326 21.572 113.326 20.582C113.326 19.592 113.533 18.737 113.947 18.017C114.361 17.297 114.919 16.748 115.621 16.37C116.323 15.974 117.115 15.776 117.997 15.776C118.861 15.776 119.635 15.974 120.319 16.37C121.021 16.748 121.579 17.297 121.993 18.017C122.407 18.737 122.614 19.592 122.614 20.582C122.614 21.572 122.407 22.427 121.993 23.147C121.579 23.867 121.021 24.425 120.319 24.821C119.617 25.199 118.834 25.388 117.97 25.388ZM116.944 35L127.609 16.1H130.984L120.319 35H116.944ZM117.97 22.985C118.492 22.985 118.942 22.787 119.32 22.391C119.698 21.977 119.887 21.374 119.887 20.582C119.887 19.79 119.698 19.187 119.32 18.773C118.96 18.359 118.51 18.152 117.97 18.152C117.43 18.152 116.971 18.359 116.593 18.773C116.233 19.187 116.053 19.79 116.053 20.582C116.053 21.374 116.233 21.977 116.593 22.391C116.971 22.787 117.43 22.985 117.97 22.985ZM130.066 35.324C129.202 35.324 128.419 35.135 127.717 34.757C127.015 34.361 126.457 33.803 126.043 33.083C125.629 32.363 125.422 31.508 125.422 30.518C125.422 29.528 125.629 28.682 126.043 27.98C126.457 27.26 127.015 26.711 127.717 26.333C128.419 25.937 129.211 25.739 130.093 25.739C130.957 25.739 131.731 25.937 132.415 26.333C133.117 26.711 133.675 27.26 134.089 27.98C134.503 28.682 134.71 29.528 134.71 30.518C134.71 31.508 134.503 32.363 134.089 33.083C133.675 33.803 133.117 34.361 132.415 34.757C131.731 35.135 130.948 35.324 130.066 35.324ZM130.066 32.921C130.606 32.921 131.056 32.723 131.416 32.327C131.794 31.913 131.983 31.31 131.983 30.518C131.983 29.726 131.794 29.123 131.416 28.709C131.056 28.295 130.606 28.088 130.066 28.088C129.526 28.088 129.067 28.295 128.689 28.709C128.329 29.123 128.149 29.726 128.149 30.518C128.149 31.31 128.329 31.913 128.689 32.327C129.067 32.723 129.526 32.921 130.066 32.921ZM146.673 35.288C145.553 35.288 144.545 35.032 143.649 34.52C142.753 34.008 142.041 33.288 141.513 32.36C141.001 31.416 140.745 30.312 140.745 29.048C140.745 27.784 141.009 26.688 141.537 25.76C142.065 24.816 142.777 24.088 143.673 23.576C144.585 23.064 145.601 22.808 146.721 22.808C147.841 22.808 148.849 23.064 149.745 23.576C150.641 24.088 151.345 24.816 151.857 25.76C152.385 26.688 152.649 27.784 152.649 29.048C152.649 30.312 152.385 31.416 151.857 32.36C151.329 33.288 150.609 34.008 149.697 34.52C148.801 35.032 147.793 35.288 146.673 35.288ZM146.673 33.56C147.361 33.56 148.001 33.392 148.593 33.056C149.185 32.72 149.665 32.216 150.033 31.544C150.401 30.872 150.585 30.04 150.585 29.048C150.585 28.056 150.401 27.224 150.033 26.552C149.681 25.88 149.209 25.376 148.617 25.04C148.025 24.704 147.393 24.536 146.721 24.536C146.033 24.536 145.393 24.704 144.801 25.04C144.209 25.376 143.729 25.88 143.361 26.552C142.993 27.224 142.809 28.056 142.809 29.048C142.809 30.04 142.993 30.872 143.361 31.544C143.729 32.216 144.201 32.72 144.777 33.056C145.369 33.392 146.001 33.56 146.673 33.56ZM154.9 35V24.8H153.1V23.096H154.9V21.032C154.9 19.88 155.188 19.04 155.764 18.512C156.34 17.984 157.18 17.72 158.284 17.72H159.484V19.448H158.596C157.988 19.448 157.556 19.576 157.3 19.832C157.044 20.072 156.916 20.488 156.916 21.08V23.096H159.844V24.8H156.916V35H154.9ZM161.692 35V24.8H159.892V23.096H161.692V21.032C161.692 19.88 161.98 19.04 162.556 18.512C163.132 17.984 163.972 17.72 165.076 17.72H166.276V19.448H165.388C164.78 19.448 164.348 19.576 164.092 19.832C163.836 20.072 163.708 20.488 163.708 21.08V23.096H166.636V24.8H163.708V35H161.692Z" fill="white"/>
</svg>
