<svg width="133" height="59" viewBox="0 0 133 59" fill="none" xmlns="http://www.w3.org/2000/svg">
<path d="M3.278 54.0002V41.4002H11.18V42.9482H5.186V46.9262H10.154V48.4562H5.186V54.0002H3.278ZM12.6194 54.0002V41.0402H14.5274V54.0002H12.6194ZM17.6637 43.3802C17.3037 43.3802 17.0037 43.2722 16.7637 43.0562C16.5357 42.8282 16.4217 42.5462 16.4217 42.2102C16.4217 41.8742 16.5357 41.5982 16.7637 41.3822C17.0037 41.1542 17.3037 41.0402 17.6637 41.0402C18.0237 41.0402 18.3177 41.1542 18.5457 41.3822C18.7857 41.5982 18.9057 41.8742 18.9057 42.2102C18.9057 42.5462 18.7857 42.8282 18.5457 43.0562C18.3177 43.2722 18.0237 43.3802 17.6637 43.3802ZM16.7097 54.0002V45.0722H18.6177V54.0002H16.7097ZM24.4304 51.2642C23.9624 51.2642 23.5304 51.2102 23.1344 51.1022L22.3604 51.8582C22.4924 51.9422 22.6544 52.0142 22.8464 52.0742C23.0384 52.1342 23.3084 52.1882 23.6564 52.2362C24.0044 52.2842 24.4784 52.3322 25.0784 52.3802C26.2664 52.4882 27.1244 52.7762 27.6524 53.2442C28.1804 53.7002 28.4444 54.3122 28.4444 55.0802C28.4444 55.6082 28.3004 56.1062 28.0124 56.5742C27.7364 57.0542 27.2984 57.4382 26.6984 57.7262C26.1104 58.0262 25.3544 58.1762 24.4304 58.1762C23.1824 58.1762 22.1684 57.9362 21.3884 57.4562C20.6204 56.9882 20.2364 56.2742 20.2364 55.3142C20.2364 54.9422 20.3324 54.5702 20.5244 54.1982C20.7284 53.8382 21.0464 53.4962 21.4784 53.1722C21.2264 53.0642 21.0044 52.9502 20.8124 52.8302C20.6324 52.6982 20.4704 52.5662 20.3264 52.4342V52.0022L21.8744 50.4182C21.1784 49.8182 20.8304 49.0322 20.8304 48.0602C20.8304 47.4722 20.9684 46.9382 21.2444 46.4582C21.5324 45.9662 21.9464 45.5762 22.4864 45.2882C23.0264 45.0002 23.6744 44.8562 24.4304 44.8562C24.9344 44.8562 25.4024 44.9282 25.8344 45.0722H29.1644V46.3322L27.5804 46.4222C27.8684 46.9142 28.0124 47.4602 28.0124 48.0602C28.0124 48.6602 27.8684 49.2002 27.5804 49.6802C27.3044 50.1602 26.8964 50.5442 26.3564 50.8322C25.8284 51.1202 25.1864 51.2642 24.4304 51.2642ZM24.4304 49.7702C24.9824 49.7702 25.4264 49.6262 25.7624 49.3382C26.1104 49.0382 26.2844 48.6182 26.2844 48.0782C26.2844 47.5262 26.1104 47.1062 25.7624 46.8182C25.4264 46.5302 24.9824 46.3862 24.4304 46.3862C23.8664 46.3862 23.4104 46.5302 23.0624 46.8182C22.7264 47.1062 22.5584 47.5262 22.5584 48.0782C22.5584 48.6182 22.7264 49.0382 23.0624 49.3382C23.4104 49.6262 23.8664 49.7702 24.4304 49.7702ZM22.0364 55.1342C22.0364 55.6502 22.2644 56.0342 22.7204 56.2862C23.1764 56.5502 23.7464 56.6822 24.4304 56.6822C25.0904 56.6822 25.6244 56.5382 26.0324 56.2502C26.4404 55.9742 26.6444 55.6022 26.6444 55.1342C26.6444 54.7862 26.5064 54.4862 26.2304 54.2342C25.9544 53.9942 25.4324 53.8442 24.6644 53.7842C24.0884 53.7482 23.5784 53.6942 23.1344 53.6222C22.7144 53.8502 22.4264 54.0962 22.2704 54.3602C22.1144 54.6242 22.0364 54.8822 22.0364 55.1342ZM30.5062 54.0002V41.0402H32.4142V46.5122C32.7142 45.9962 33.1282 45.5942 33.6562 45.3062C34.1962 45.0062 34.7902 44.8562 35.4382 44.8562C36.5062 44.8562 37.3462 45.1922 37.9582 45.8642C38.5702 46.5362 38.8762 47.5382 38.8762 48.8702V54.0002H36.9862V49.0682C36.9862 47.3402 36.2962 46.4762 34.9162 46.4762C34.1962 46.4762 33.5962 46.7282 33.1162 47.2322C32.6482 47.7362 32.4142 48.4562 32.4142 49.3922V54.0002H30.5062ZM44.5074 54.0002C43.6314 54.0002 42.9354 53.7902 42.4194 53.3702C41.9034 52.9382 41.6454 52.1762 41.6454 51.0842V46.6742H40.1154V45.0722H41.6454L41.8794 42.8042H43.5534V45.0722H46.0734V46.6742H43.5534V51.0842C43.5534 51.5762 43.6554 51.9182 43.8594 52.1102C44.0754 52.2902 44.4414 52.3802 44.9574 52.3802H45.9834V54.0002H44.5074ZM51.7299 49.5722V47.9702H55.1319V44.7842H56.7879V47.9702H60.1899V49.5722H56.7879V52.7762H55.1319V49.5722H51.7299ZM72.1023 54.0002V51.4802H65.7843V49.9682L71.7963 41.4002H73.9923V49.8242H75.7563V51.4802H73.9923V54.0002H72.1023ZM67.8543 49.8242H72.2103V43.5062L67.8543 49.8242ZM81.3903 54.0002V41.4002H83.2983L89.6163 50.8862V41.4002H91.5243V54.0002H89.6163L83.2983 44.5142V54.0002H81.3903ZM94.7297 43.3802C94.3697 43.3802 94.0697 43.2722 93.8297 43.0562C93.6017 42.8282 93.4877 42.5462 93.4877 42.2102C93.4877 41.8742 93.6017 41.5982 93.8297 41.3822C94.0697 41.1542 94.3697 41.0402 94.7297 41.0402C95.0897 41.0402 95.3837 41.1542 95.6117 41.3822C95.8517 41.5982 95.9717 41.8742 95.9717 42.2102C95.9717 42.5462 95.8517 42.8282 95.6117 43.0562C95.3837 43.2722 95.0897 43.3802 94.7297 43.3802ZM93.7757 54.0002V45.0722H95.6837V54.0002H93.7757ZM101.496 51.2642C101.028 51.2642 100.596 51.2102 100.2 51.1022L99.4264 51.8582C99.5584 51.9422 99.7204 52.0142 99.9124 52.0742C100.104 52.1342 100.374 52.1882 100.722 52.2362C101.07 52.2842 101.544 52.3322 102.144 52.3802C103.332 52.4882 104.19 52.7762 104.718 53.2442C105.246 53.7002 105.51 54.3122 105.51 55.0802C105.51 55.6082 105.366 56.1062 105.078 56.5742C104.802 57.0542 104.364 57.4382 103.764 57.7262C103.176 58.0262 102.42 58.1762 101.496 58.1762C100.248 58.1762 99.2344 57.9362 98.4544 57.4562C97.6864 56.9882 97.3024 56.2742 97.3024 55.3142C97.3024 54.9422 97.3984 54.5702 97.5904 54.1982C97.7944 53.8382 98.1124 53.4962 98.5444 53.1722C98.2924 53.0642 98.0704 52.9502 97.8784 52.8302C97.6984 52.6982 97.5364 52.5662 97.3924 52.4342V52.0022L98.9404 50.4182C98.2444 49.8182 97.8964 49.0322 97.8964 48.0602C97.8964 47.4722 98.0344 46.9382 98.3104 46.4582C98.5984 45.9662 99.0124 45.5762 99.5524 45.2882C100.092 45.0002 100.74 44.8562 101.496 44.8562C102 44.8562 102.468 44.9282 102.9 45.0722H106.23V46.3322L104.646 46.4222C104.934 46.9142 105.078 47.4602 105.078 48.0602C105.078 48.6602 104.934 49.2002 104.646 49.6802C104.37 50.1602 103.962 50.5442 103.422 50.8322C102.894 51.1202 102.252 51.2642 101.496 51.2642ZM101.496 49.7702C102.048 49.7702 102.492 49.6262 102.828 49.3382C103.176 49.0382 103.35 48.6182 103.35 48.0782C103.35 47.5262 103.176 47.1062 102.828 46.8182C102.492 46.5302 102.048 46.3862 101.496 46.3862C100.932 46.3862 100.476 46.5302 100.128 46.8182C99.7924 47.1062 99.6244 47.5262 99.6244 48.0782C99.6244 48.6182 99.7924 49.0382 100.128 49.3382C100.476 49.6262 100.932 49.7702 101.496 49.7702ZM99.1024 55.1342C99.1024 55.6502 99.3304 56.0342 99.7864 56.2862C100.242 56.5502 100.812 56.6822 101.496 56.6822C102.156 56.6822 102.69 56.5382 103.098 56.2502C103.506 55.9742 103.71 55.6022 103.71 55.1342C103.71 54.7862 103.572 54.4862 103.296 54.2342C103.02 53.9942 102.498 53.8442 101.73 53.7842C101.154 53.7482 100.644 53.6942 100.2 53.6222C99.7804 53.8502 99.4924 54.0962 99.3364 54.3602C99.1804 54.6242 99.1024 54.8822 99.1024 55.1342ZM107.572 54.0002V41.0402H109.48V46.5122C109.78 45.9962 110.194 45.5942 110.722 45.3062C111.262 45.0062 111.856 44.8562 112.504 44.8562C113.572 44.8562 114.412 45.1922 115.024 45.8642C115.636 46.5362 115.942 47.5382 115.942 48.8702V54.0002H114.052V49.0682C114.052 47.3402 113.362 46.4762 111.982 46.4762C111.262 46.4762 110.662 46.7282 110.182 47.2322C109.714 47.7362 109.48 48.4562 109.48 49.3922V54.0002H107.572ZM121.573 54.0002C120.697 54.0002 120.001 53.7902 119.485 53.3702C118.969 52.9382 118.711 52.1762 118.711 51.0842V46.6742H117.181V45.0722H118.711L118.945 42.8042H120.619V45.0722H123.139V46.6742H120.619V51.0842C120.619 51.5762 120.721 51.9182 120.925 52.1102C121.141 52.2902 121.507 52.3802 122.023 52.3802H123.049V54.0002H121.573ZM128.311 54.2162C127.183 54.2162 126.253 53.9402 125.521 53.3882C124.789 52.8362 124.369 52.1042 124.261 51.1922H126.187C126.283 51.6002 126.511 51.9542 126.871 52.2542C127.231 52.5422 127.705 52.6862 128.293 52.6862C128.869 52.6862 129.289 52.5662 129.553 52.3262C129.817 52.0862 129.949 51.8102 129.949 51.4982C129.949 51.0422 129.763 50.7362 129.391 50.5802C129.031 50.4122 128.527 50.2622 127.879 50.1302C127.375 50.0222 126.871 49.8782 126.367 49.6982C125.875 49.5182 125.461 49.2662 125.125 48.9422C124.801 48.6062 124.639 48.1562 124.639 47.5922C124.639 46.8122 124.939 46.1642 125.539 45.6482C126.139 45.1202 126.979 44.8562 128.059 44.8562C129.055 44.8562 129.859 45.0962 130.471 45.5762C131.095 46.0562 131.461 46.7342 131.569 47.6102H129.733C129.673 47.2262 129.493 46.9262 129.193 46.7102C128.905 46.4942 128.515 46.3862 128.023 46.3862C127.543 46.3862 127.171 46.4882 126.907 46.6922C126.643 46.8842 126.511 47.1362 126.511 47.4482C126.511 47.7602 126.691 48.0062 127.051 48.1862C127.423 48.3662 127.909 48.5282 128.509 48.6722C129.109 48.8042 129.661 48.9602 130.165 49.1402C130.681 49.3082 131.095 49.5602 131.407 49.8962C131.719 50.2322 131.875 50.7242 131.875 51.3722C131.887 52.1882 131.569 52.8662 130.921 53.4062C130.285 53.9462 129.415 54.2162 128.311 54.2162Z" fill="white"/>
<path d="M24.7942 19.1973V17.1244L15.6394 11.9423V6.2419C15.6394 5.38166 14.8727 4.68726 13.9228 4.68726C12.973 4.68726 12.2063 5.38166 12.2063 6.2419V11.9423L3.05145 17.1244V19.1973L12.2063 16.6062V22.3066L9.91759 23.8612V25.4159L13.9228 24.3795L17.9281 25.4159V23.8612L15.6394 22.3066V16.6062L24.7942 19.1973Z" fill="white"/>
<path d="M39.42 15.0601H36.8205V17.5927H35.05V15.0601H32.4645V13.6475H35.05V11.1277H36.8205V13.6475H39.42V15.0601Z" fill="white"/>
<path d="M60.2768 8.37682V3.59009H47.0638V25.1304H73.4897V8.37682H60.2768ZM52.349 22.737H49.7064V20.3436H52.349V22.737ZM52.349 17.9503H49.7064V15.5569H52.349V17.9503ZM52.349 13.1635H49.7064V10.7702H52.349V13.1635ZM52.349 8.37682H49.7064V5.98345H52.349V8.37682ZM57.6342 22.737H54.9916V20.3436H57.6342V22.737ZM57.6342 17.9503H54.9916V15.5569H57.6342V17.9503ZM57.6342 13.1635H54.9916V10.7702H57.6342V13.1635ZM57.6342 8.37682H54.9916V5.98345H57.6342V8.37682ZM70.8472 22.737H60.2768V20.3436H62.9194V17.9503H60.2768V15.5569H62.9194V13.1635H60.2768V10.7702H70.8472V22.737ZM68.2046 13.1635H65.562V15.5569H68.2046V13.1635ZM68.2046 17.9503H65.562V20.3436H68.2046V17.9503Z" fill="white"/>
</svg>
