<svg width="50" height="50" viewBox="0 0 50 50" fill="none" xmlns="http://www.w3.org/2000/svg">
<g clip-path="url(#clip0_1_196)">
<path d="M39.8259 0.026947H10.1741C4.48975 0.418939 0 5.15351 0 10.9375V16.6757H50V10.9375C50 5.15351 45.5103 0.418939 39.8259 0.026947Z" fill="#FAB446"/>
<path d="M0 39.0625C0 44.8465 4.48984 49.5811 10.1742 49.973H39.8258C45.5102 49.5811 50 44.8465 50 39.0625V33.3243H0V39.0625Z" fill="#73AF00"/>
<path d="M50 16.6758H0V33.3242H50V16.6758Z" fill="#F5F5F5"/>
<path d="M25 30.7078C21.8526 30.7078 19.2922 28.1474 19.2922 25C19.2922 21.8526 21.8526 19.2922 25 19.2922C28.1474 19.2922 30.7078 21.8526 30.7078 25C30.7078 28.1474 28.1474 30.7078 25 30.7078ZM25 20.3541C22.438 20.3541 20.3541 22.438 20.3541 25C20.3541 27.562 22.438 29.6459 25 29.6459C27.562 29.6459 29.6459 27.562 29.6459 25C29.6459 22.438 27.562 20.3541 25 20.3541Z" fill="#41479B"/>
<path d="M25 25.647C25.3574 25.647 25.6471 25.3573 25.6471 25C25.6471 24.6426 25.3574 24.3529 25 24.3529C24.6426 24.3529 24.3529 24.6426 24.3529 25C24.3529 25.3573 24.6426 25.647 25 25.647Z" fill="#41479B"/>
<path d="M25 25.0971L23.3556 25.2631L19.8231 25.0971V24.9029L23.3556 24.7369L25 24.9029V25.0971Z" fill="#41479B"/>
<path d="M25 25.0971L26.6444 25.2631L30.1769 25.0971V24.9029L26.6444 24.7369L25 24.9029V25.0971Z" fill="#41479B"/>
<path d="M24.9029 25L24.7369 23.3555L24.9029 19.8231H25.0971L25.2631 23.3555L25.0971 25H24.9029Z" fill="#41479B"/>
<path d="M24.9029 25L24.7369 26.6444L24.9029 30.1769H25.0971L25.2631 26.6444L25.0971 25H24.9029Z" fill="#41479B"/>
<path d="M24.9313 25.0686L23.6512 24.0232L21.2708 21.408L21.408 21.2708L24.0232 23.6512L25.0687 24.9313L24.9313 25.0686Z" fill="#41479B"/>
<path d="M24.9313 25.0686L25.9768 26.3488L28.592 28.7293L28.7292 28.592L26.3488 25.9767L25.0687 24.9313L24.9313 25.0686Z" fill="#41479B"/>
<path d="M24.9313 24.9313L25.9768 23.6512L28.592 21.2708L28.7292 21.408L26.3488 24.0232L25.0687 25.0686L24.9313 24.9313Z" fill="#41479B"/>
<path d="M24.9313 24.9313L23.6512 25.9767L21.2708 28.592L21.408 28.7293L24.0232 26.3488L25.0687 25.0686L24.9313 24.9313Z" fill="#41479B"/>
<path d="M25.0371 25.0896L23.5814 25.8724L20.2543 27.0708L20.1801 26.8914L23.3801 25.3862L24.9629 24.9103L25.0371 25.0896Z" fill="#41479B"/>
<path d="M25.0371 25.0896L26.6199 24.6138L29.8199 23.1086L29.7457 22.9292L26.4186 24.1276L24.9629 24.9104L25.0371 25.0896Z" fill="#41479B"/>
<path d="M24.9104 25.0371L24.1276 23.5814L22.9292 20.2543L23.1086 20.1801L24.6138 23.3801L25.0896 24.9629L24.9104 25.0371Z" fill="#41479B"/>
<path d="M24.9104 25.0371L25.3862 26.6199L26.8914 29.8199L27.0708 29.7457L25.8724 26.4186L25.0896 24.9629L24.9104 25.0371Z" fill="#41479B"/>
<path d="M24.9629 25.0896L23.3801 24.6138L20.1801 23.1086L20.2543 22.9292L23.5814 24.1276L25.0371 24.9104L24.9629 25.0896Z" fill="#41479B"/>
<path d="M24.9629 25.0896L26.4186 25.8724L29.7457 27.0708L29.8199 26.8914L26.6199 25.3862L25.0371 24.9103L24.9629 25.0896Z" fill="#41479B"/>
<path d="M24.9104 24.9629L25.3862 23.3801L26.8914 20.1801L27.0708 20.2543L25.8724 23.5814L25.0896 25.0371L24.9104 24.9629Z" fill="#41479B"/>
<path d="M24.9104 24.9629L24.1276 26.4186L22.9292 29.7457L23.1086 29.8199L24.6138 26.6199L25.0896 25.0371L24.9104 24.9629Z" fill="#41479B"/>
<path d="M25 25.7087C25.3914 25.7087 25.7087 25.3914 25.7087 25C25.7087 24.6086 25.3914 24.2913 25 24.2913C24.6086 24.2913 24.2913 24.6086 24.2913 25C24.2913 25.3914 24.6086 25.7087 25 25.7087Z" fill="#F5F5F5"/>
<path d="M25 25.5233C25.289 25.5233 25.5233 25.289 25.5233 25C25.5233 24.711 25.289 24.4767 25 24.4767C24.711 24.4767 24.4767 24.711 24.4767 25C24.4767 25.289 24.711 25.5233 25 25.5233Z" fill="#41479B"/>
</g>
<defs>
<clipPath id="clip0_1_196">
<rect width="50" height="50" fill="white"/>
</clipPath>
</defs>
</svg>
