<svg width="31" height="33" viewBox="0 0 31 33" fill="none" xmlns="http://www.w3.org/2000/svg">
<g clip-path="url(#clip0_1_474)">
<path d="M28.7643 0H2.23574C1.00092 0 0 1.06549 0 2.37998V30.62C0 31.9345 1.00092 33 2.23574 33H28.7643C29.9991 33 31 31.9345 31 30.62V2.37998C31 1.06549 29.9991 0 28.7643 0V0ZM10.9959 24.9434H7.22092V12.8536H10.9959V24.9434ZM9.10852 11.2028H9.08392C7.81717 11.2028 6.99789 10.2745 6.99789 9.11433C6.99789 7.92799 7.84224 7.02539 9.13359 7.02539C10.4249 7.02539 11.2196 7.92799 11.2442 9.11433C11.2442 10.2745 10.4249 11.2028 9.10852 11.2028ZM24.6076 24.9434H20.8331V18.4756C20.8331 16.8502 20.2865 15.7417 18.9207 15.7417C17.8779 15.7417 17.2568 16.4894 16.9839 17.2113C16.8841 17.4696 16.8597 17.8306 16.8597 18.1919V24.9434H13.085C13.085 24.9434 13.1344 13.9878 13.085 12.8536H16.8597V14.5654C17.3613 13.7416 18.2589 12.5699 20.2617 12.5699C22.7453 12.5699 24.6076 14.2978 24.6076 18.0111V24.9434Z" fill="#2F73F2"/>
</g>
<defs>
<clipPath id="clip0_1_474">
<rect width="31" height="33" fill="white"/>
</clipPath>
</defs>
</svg>
