<svg width="22" height="22" viewBox="0 0 22 22" fill="none" xmlns="http://www.w3.org/2000/svg">
<g clip-path="url(#clip0_1_246)">
<path d="M21.8546 10.6475L16.8547 5.64756C16.6751 5.43783 16.3595 5.41338 16.1497 5.59303C15.94 5.77264 15.9156 6.08828 16.0952 6.29801C16.112 6.31756 16.1302 6.33582 16.1497 6.35253L20.2946 10.5025H0.499976C0.223863 10.5025 0 10.7263 0 11.0025C0 11.2786 0.223863 11.5025 0.499976 11.5025H20.2946L16.1497 15.6474C15.94 15.827 15.9156 16.1426 16.0952 16.3523C16.2749 16.5621 16.5905 16.5865 16.8002 16.4069C16.8197 16.3901 16.838 16.3719 16.8547 16.3523L21.8546 11.3524C22.0485 11.1575 22.0485 10.8425 21.8546 10.6475Z" fill="#2F73F2"/>
</g>
<defs>
<clipPath id="clip0_1_246">
<rect width="22" height="22" fill="white"/>
</clipPath>
</defs>
</svg>
