<svg width="50" height="50" viewBox="0 0 50 50" fill="none" xmlns="http://www.w3.org/2000/svg">
<g clip-path="url(#clip0_1_293)">
<path d="M39.0625 0H10.9375C4.89687 0 0 4.89687 0 10.9375V39.0625C0 45.1031 4.89687 50 10.9375 50H39.0625C45.1031 50 50 45.1031 50 39.0625V10.9375C50 4.89687 45.1031 0 39.0625 0Z" fill="#C8414B"/>
<path d="M50 10.4131H0V39.5869H50V10.4131Z" fill="#FFD250"/>
<path d="M21.7862 25.0402L22.5924 21.7526C22.6666 21.4499 22.4124 21.1627 22.0702 21.1627H21.5023C21.1602 21.1627 20.9059 21.4499 20.9802 21.7526L21.7862 25.0402Z" fill="#C8414B"/>
<path d="M22.7366 23.3164H20.835V30.6406H22.7366V23.3164Z" fill="#F5F5F5"/>
<path d="M23.2129 22.4551H20.3604V23.3167H23.2129V22.4551Z" fill="#FAB446"/>
<path d="M23.212 25.04H18.458V25.9017H23.212V25.04Z" fill="#C8414B"/>
<path d="M23.2125 28.4869L20.36 27.6252V26.7636L23.2125 27.6252V28.4869Z" fill="#C8414B"/>
<path d="M7.52411 25.0402L8.33026 21.7526C8.40448 21.4499 8.15028 21.1627 7.80809 21.1627H7.24022C6.89804 21.1627 6.64374 21.4499 6.71805 21.7526L7.52411 25.0402Z" fill="#C8414B"/>
<path d="M10.852 22.4552C10.3269 22.4552 9.90118 22.8409 9.90118 23.3169V28.9178C9.90118 29.9647 10.9794 31.9336 14.6553 31.9336C18.3312 31.9336 19.4094 29.9646 19.4094 28.9178V23.3169C19.4094 22.841 18.9837 22.4552 18.4586 22.4552H10.852Z" fill="#F5F5F5"/>
<path d="M14.6552 26.7636H9.90106V23.3603C9.90106 22.8604 10.3063 22.4552 10.8062 22.4552H14.6552V26.7636Z" fill="#C8414B"/>
<path d="M14.6552 26.7636H19.4093V28.8091C19.4093 30.0588 18.3962 31.072 17.1464 31.072H16.918C15.6683 31.072 14.6552 30.0589 14.6552 28.8091V26.7636Z" fill="#C8414B"/>
<path d="M9.90106 26.7636H14.6552V28.8091C14.6552 30.0588 13.6421 31.072 12.3923 31.072H12.164C10.9142 31.072 9.90106 30.0589 9.90106 28.8091C9.90106 28.8091 9.90106 26.7636 9.90106 26.7636Z" fill="#FAB446"/>
<path d="M13.7044 30.6314V26.7636H12.7536V31.0285C13.1071 30.9634 13.4268 30.8215 13.7044 30.6314Z" fill="#C8414B"/>
<path d="M11.8027 31.0285V26.7636H10.852V30.6314C11.1296 30.8215 11.4491 30.9634 11.8027 31.0285Z" fill="#C8414B"/>
<path d="M13.7041 25.04H10.8516V25.9017H13.7041V25.04Z" fill="#FFB441"/>
<path d="M13.7041 23.3164H10.8516V24.1781H13.7041V23.3164Z" fill="#FAB446"/>
<path d="M13.2288 23.8291H11.3271V25.3901H13.2288V23.8291Z" fill="#FAB446"/>
<path d="M8.4749 23.3164H6.57324V30.6406H8.4749V23.3164Z" fill="#F5F5F5"/>
<path d="M8.9502 30.21H6.09766V31.0716H8.9502V30.21Z" fill="#FAB446"/>
<path d="M8.9502 22.4551H6.09766V23.3167H8.9502V22.4551Z" fill="#FAB446"/>
<path d="M9.42529 31.0723H5.62207V31.9339H9.42529V31.0723Z" fill="#5064AA"/>
<path d="M23.6875 30.21H20.835V31.0716H23.6875V30.21Z" fill="#FAB446"/>
<path d="M23.688 31.0723H19.8848V31.9339H23.688V31.0723Z" fill="#5064AA"/>
<path d="M17.5078 21.5938H11.8027V22.4554H17.5078V21.5938Z" fill="#FAB446"/>
<path d="M15.1305 19.0088H14.1797V21.5938H15.1305V19.0088Z" fill="#FFB441"/>
<path d="M13.7044 20.301C12.918 20.301 12.2782 19.7212 12.2782 19.0085C12.2782 18.2958 12.918 17.716 13.7044 17.716C14.4908 17.716 15.1306 18.2958 15.1306 19.0085C15.1306 19.7212 14.4908 20.301 13.7044 20.301ZM13.7044 18.5776C13.4421 18.5776 13.229 18.7708 13.229 19.0085C13.229 19.2462 13.4421 19.4394 13.7044 19.4394C13.9667 19.4394 14.1798 19.2462 14.1798 19.0085C14.1798 18.7708 13.9667 18.5776 13.7044 18.5776Z" fill="#F5F5F5"/>
<path d="M15.6059 20.301C14.8195 20.301 14.1798 19.7212 14.1798 19.0085C14.1798 18.2958 14.8195 17.716 15.6059 17.716C16.3924 17.716 17.0321 18.2958 17.0321 19.0085C17.0321 19.7212 16.3925 20.301 15.6059 20.301ZM15.6059 18.5776C15.3436 18.5776 15.1306 18.7708 15.1306 19.0085C15.1306 19.2462 15.3436 19.4394 15.6059 19.4394C15.8683 19.4394 16.0813 19.2462 16.0813 19.0085C16.0813 18.7708 15.8683 18.5776 15.6059 18.5776Z" fill="#F5F5F5"/>
<path d="M17.5076 21.1627C16.7212 21.1627 16.0815 20.5829 16.0815 19.8702C16.0815 19.1575 16.7212 18.5777 17.5076 18.5777C18.294 18.5777 18.9339 19.1575 18.9339 19.8702C18.9339 20.5829 18.294 21.1627 17.5076 21.1627ZM17.5076 19.4394C17.2453 19.4394 17.0322 19.6325 17.0322 19.8702C17.0322 20.1079 17.2453 20.3011 17.5076 20.3011C17.7699 20.3011 17.983 20.1079 17.983 19.8702C17.983 19.6324 17.7699 19.4394 17.5076 19.4394Z" fill="#F5F5F5"/>
<path d="M11.8027 21.1627C11.0163 21.1627 10.3766 20.5829 10.3766 19.8702C10.3766 19.1575 11.0163 18.5777 11.8027 18.5777C12.5892 18.5777 13.2289 19.1575 13.2289 19.8702C13.2289 20.5829 12.5892 21.1627 11.8027 21.1627ZM11.8027 19.4394C11.5404 19.4394 11.3273 19.6325 11.3273 19.8702C11.3273 20.1079 11.5404 20.3011 11.8027 20.3011C12.065 20.3011 12.2781 20.1079 12.2781 19.8702C12.2781 19.6324 12.065 19.4394 11.8027 19.4394Z" fill="#F5F5F5"/>
<path d="M17.5076 28.4869V28.9178C17.5076 29.1554 17.2943 29.3486 17.0322 29.3486C16.7701 29.3486 16.5568 29.1554 16.5568 28.9178V28.4869H17.5076ZM18.4584 27.6252H15.606V28.9177C15.606 29.6304 16.2458 30.2102 17.0321 30.2102C17.8186 30.2102 18.4584 29.6303 18.4584 28.9177V27.6252Z" fill="#FAB446"/>
<path d="M17.0778 25.9019H16.9865C16.4866 25.9019 16.0814 25.4966 16.0814 24.9967V24.222C16.0814 23.7221 16.4866 23.3168 16.9865 23.3168H17.0778C17.5777 23.3168 17.983 23.7221 17.983 24.222V24.9967C17.983 25.4967 17.5777 25.9019 17.0778 25.9019Z" fill="#FFA0D2"/>
<path d="M14.6553 28.0562C15.4429 28.0562 16.0814 27.4775 16.0814 26.7637C16.0814 26.0499 15.4429 25.4712 14.6553 25.4712C13.8676 25.4712 13.2291 26.0499 13.2291 26.7637C13.2291 27.4775 13.8676 28.0562 14.6553 28.0562Z" fill="#5064AA"/>
<path d="M15.1305 17.2852H14.1797V19.8702H15.1305V17.2852Z" fill="#FAB446"/>
<path d="M11.8027 21.5936L10.852 20.7318L11.4089 20.2271C12.2698 19.4468 13.4376 19.0085 14.6552 19.0085C15.8728 19.0085 17.0405 19.4469 17.9015 20.2271L18.4584 20.7318L17.5076 21.5936H11.8027Z" fill="#C8414B"/>
<path d="M14.6553 21.1623C14.9178 21.1623 15.1307 20.9694 15.1307 20.7314C15.1307 20.4935 14.9178 20.3006 14.6553 20.3006C14.3927 20.3006 14.1799 20.4935 14.1799 20.7314C14.1799 20.9694 14.3927 21.1623 14.6553 21.1623Z" fill="#FFD250"/>
<path d="M12.7539 21.1623C13.0164 21.1623 13.2293 20.9694 13.2293 20.7314C13.2293 20.4935 13.0164 20.3006 12.7539 20.3006C12.4913 20.3006 12.2785 20.4935 12.2785 20.7314C12.2785 20.9694 12.4913 21.1623 12.7539 21.1623Z" fill="#FFD250"/>
<path d="M16.5566 21.1623C16.8192 21.1623 17.032 20.9694 17.032 20.7314C17.032 20.4935 16.8192 20.3006 16.5566 20.3006C16.2941 20.3006 16.0812 20.4935 16.0812 20.7314C16.0812 20.9694 16.2941 21.1623 16.5566 21.1623Z" fill="#FFD250"/>
<path d="M10.8517 25.04H6.09766V25.9017H10.8517V25.04Z" fill="#C8414B"/>
<path d="M6.09787 28.4869L8.95031 27.6252V26.7636L6.09787 27.6252V28.4869Z" fill="#C8414B"/>
</g>
<defs>
<clipPath id="clip0_1_293">
<rect width="50" height="50" fill="white"/>
</clipPath>
</defs>
</svg>
