<svg width="50" height="50" viewBox="0 0 50 50" fill="none" xmlns="http://www.w3.org/2000/svg">
<g clip-path="url(#clip0_1_370)">
<path d="M39.0625 0H10.9375C4.89687 0 0 4.89687 0 10.9375V39.0625C0 45.1031 4.89687 50 10.9375 50H39.0625C45.1031 50 50 45.1031 50 39.0625V10.9375C50 4.89687 45.1031 0 39.0625 0Z" fill="#FF4B55"/>
<path d="M27.1477 20.6723L28.6772 22.6731L31.0655 21.8737C31.199 21.829 31.3127 21.9801 31.2327 22.096L29.8023 24.1689L31.3007 26.1934C31.3845 26.3065 31.276 26.4612 31.141 26.421L28.7274 25.7013L27.2651 27.7519C27.1834 27.8665 27.0027 27.8111 26.9993 27.6703L26.938 25.1525L24.5359 24.3955C24.4017 24.3531 24.3984 24.1643 24.5313 24.1175L26.9069 23.2812L26.8847 20.7627C26.8834 20.6218 27.0621 20.5605 27.1477 20.6723Z" fill="#F5F5F5"/>
<path d="M18.6893 31.8268C14.3788 31.8268 10.8821 28.3301 10.8821 24.0157C10.8821 19.7093 14.3788 16.2048 18.6893 16.2048C20.293 16.2048 21.772 16.698 23.0044 17.5328C23.1932 17.6606 23.4086 17.4126 23.2505 17.2483C21.4085 15.3332 18.8014 14.1649 15.9108 14.2636C10.9447 14.433 6.83349 18.4146 6.51621 23.3735C6.15273 29.0535 10.6502 33.7738 16.2498 33.7738C19.0081 33.7738 21.487 32.6207 23.2573 30.777C23.4138 30.6141 23.1978 30.3698 23.0109 30.4965C21.7772 31.3329 20.2959 31.8268 18.6893 31.8268Z" fill="#F5F5F5"/>
</g>
<defs>
<clipPath id="clip0_1_370">
<rect width="50" height="50" fill="white"/>
</clipPath>
</defs>
</svg>
